# xmcd
#
# Track frame offsets: 
#        150
#        19439
#        32859
#        58661
#        77313
#        99422
#        117984
#        144084
#        156676
#        175890
#        195676
#        220866
#
# Disc length: 3157 seconds
#
# Revision: 3
# Processed by: cddbd v1.4PL0 Copyright (c) Steve Scherf et al.
# Submitted via: ExactAudioCopy v0.90a11
#
DISCID=a30c530c
DTITLE=Nick Cave And The Bad Seeds - The Boatman's Call
DYEAR=1900
DGENRE=
TTITLE0=Into My Arms
TTITLE1=Lime Tree Arbour
TTITLE2=People Ain't No Good
TTITLE3=Brompton Oratory
TTITLE4=There Is A Kingdom
TTITLE5=(Are You) The One That I've Been Waiting For?
TTITLE6=Where Do We Go Now But Nowhere
TTITLE7=West Country Girl
TTITLE8=Black Hair
TTITLE9=Idiot Prayer
TTITLE10=Far From Me
TTITLE11=Green Eyes
EXTD=
EXTT0=
EXTT1=
EXTT2=
EXTT3=
EXTT4=
EXTT5=
EXTT6=
EXTT7=
EXTT8=
EXTT9=
EXTT10=
EXTT11=
PLAYORDER=
